HIERARCHY
ROOT Hips
{
	OFFSET 0.000000 0.000000 0.000000
	CHANNELS 6 Xposition Yposition Zposition Xrotation Yrotation Zrotation
	JOINT LeftUpLeg_virtual
	{
		OFFSET 0.000000 0.000000 0.000000
		CHANNELS 3 Xrotation Yrotation Zrotation
		JOINT LeftUpLeg
		{
			OFFSET 15.427100 -6.655098 0.678600
			CHANNELS 3 Xrotation Yrotation Zrotation
			JOINT LeftLeg
			{
				OFFSET 4.081073 -39.591068 13.024000
				CHANNELS 3 Xrotation Yrotation Zrotation
				JOINT LeftFoot
				{
					OFFSET -4.081074 -37.707932 -15.979700
					CHANNELS 3 Xrotation Yrotation Zrotation
					JOINT LeftToeBase
					{
						OFFSET 5.346399 -15.068900 20.645000
						CHANNELS 3 Xrotation Yrotation Zrotation
						JOINT LeftToe_End
						{
							OFFSET 2.754700 0.931300 11.300900
							CHANNELS 3 Xrotation Yrotation Zrotation
							End Site
							{
								OFFSET 0 0 0
							}
						}
					}
				}
			}
		}
	}
	JOINT RightUpLeg_virtual
	{
		OFFSET 0.000000 0.000000 0.000000
		CHANNELS 3 Xrotation Yrotation Zrotation
		JOINT RightUpLeg
		{
			OFFSET -15.569500 -6.655098 0.678600
			CHANNELS 3 Xrotation Yrotation Zrotation
			JOINT RightLeg
			{
				OFFSET -4.081825 -39.591045 13.023800
				CHANNELS 3 Xrotation Yrotation Zrotation
				JOINT RightFoot
				{
					OFFSET 4.081824 -37.707954 -15.979600
					CHANNELS 3 Xrotation Yrotation Zrotation
					JOINT RightToeBase
					{
						OFFSET -5.346400 -15.068900 20.645000
						CHANNELS 3 Xrotation Yrotation Zrotation
						JOINT RightToe_End
						{
							OFFSET -2.754700 0.931300 11.300900
							CHANNELS 3 Xrotation Yrotation Zrotation
							End Site
							{
								OFFSET 0 0 0
							}
						}
					}
				}
			}
		}
	}
	JOINT Spine_virtual
	{
		OFFSET 0.000000 0.000000 0.000000
		CHANNELS 3 Xrotation Yrotation Zrotation
		JOINT Spine
		{
			OFFSET -0.279200 12.230698 -2.892100
			CHANNELS 3 Xrotation Yrotation Zrotation
			JOINT Spine1
			{
				OFFSET -0.232667 10.192268 -1.242267
				CHANNELS 3 Xrotation Yrotation Zrotation
				JOINT Spine1_split
				{
					OFFSET -0.232667 10.192268 -1.242267
					CHANNELS 3 Xrotation Yrotation Zrotation
					JOINT Spine2
					{
						OFFSET -0.232667 10.192268 -1.242267
						CHANNELS 3 Xrotation Yrotation Zrotation
						JOINT Neck_virtual
						{
							OFFSET 0.000000 0.000000 0.000000
							CHANNELS 3 Xrotation Yrotation Zrotation
							JOINT Neck
							{
								OFFSET -0.418800 17.814194 8.416900
								CHANNELS 3 Xrotation Yrotation Zrotation
								JOINT Head
								{
									OFFSET 0.000000 7.031097 3.806800
									CHANNELS 3 Xrotation Yrotation Zrotation
									JOINT HeadTop_End
									{
										OFFSET 0.000000 24.646606 12.978600
										CHANNELS 3 Xrotation Yrotation Zrotation
										End Site
										{
											OFFSET 0 0 0
										}
									}
								}
							}
						}
						JOINT LeftShoulder_virtual
						{
							OFFSET 0.000000 0.000000 0.000000
							CHANNELS 3 Xrotation Yrotation Zrotation
							JOINT LeftShoulder
							{
								OFFSET 8.476499 7.247704 -3.868750
								CHANNELS 3 Xrotation Yrotation Zrotation
								JOINT LeftShoulder_split
								{
									OFFSET 8.476499 7.247704 -3.868750
									CHANNELS 3 Xrotation Yrotation Zrotation
									JOINT LeftArm
									{
										OFFSET 9.308998 -2.777710 0.208600
										CHANNELS 3 Xrotation Yrotation Zrotation
										JOINT LeftForeArm
										{
											OFFSET 29.972298 0.000000 0.000000
											CHANNELS 3 Xrotation Yrotation Zrotation
											JOINT LeftHand
											{
												OFFSET 26.026505 0.000000 0.000000
												CHANNELS 3 Xrotation Yrotation Zrotation
												End Site
												{
													OFFSET 0 0 0
												}
											}
										}
									}
								}
							}
						}
						JOINT RightShoulder_virtual
						{
							OFFSET 0.000000 0.000000 0.000000
							CHANNELS 3 Xrotation Yrotation Zrotation
							JOINT RightShoulder
							{
								OFFSET -7.570500 7.247704 -3.868750
								CHANNELS 3 Xrotation Yrotation Zrotation
								JOINT RightShoulder_split
								{
									OFFSET -7.570500 7.247704 -3.868750
									CHANNELS 3 Xrotation Yrotation Zrotation
									JOINT RightArm
									{
										OFFSET -9.308998 -2.777710 0.208500
										CHANNELS 3 Xrotation Yrotation Zrotation
										JOINT RightForeArm
										{
											OFFSET -29.972300 0.000000 0.000000
											CHANNELS 3 Xrotation Yrotation Zrotation
											JOINT RightHand
											{
												OFFSET -26.026505 0.000000 0.000000
												CHANNELS 3 Xrotation Yrotation Zrotation
												End Site
												{
													OFFSET 0 0 0
												}
											}
										}
									}
								}
							}
						}
					}
				}
			}
		}
	}
}
MOTION
Frames: 4
Frame Time: 0.03333333
-1.134345 88.215698 15.753555 0.000000 0.000000 0.000000 172.349770 -60.613721 173.371074 1.064494 15.916503 17.898290 20.666518 18.640336 2.885589 -11.244462 4.124692 -28.561237 -8.674725 2.804874 -0.969963 0.000000 0.000000 0.000000 171.720641 -60.212940 172.443152 -22.361942 -19.215586 -20.856606 23.132481 -9.861034 1.381831 0.993575 1.100888 7.293857 -4.178817 -9.405996 4.928525 0.000000 0.000000 0.000000 172.341628 -63.838916 172.360234 10.449365 0.129954 0.402598 -0.634078 -1.111058 2.434835 0.777594 -1.731762 0.197404 0.000000 0.000000 0.000000 -1.837577 -1.008300 2.779509 -3.838290 19.546781 4.345060 -0.950875 27.516662 -7.698888 0.000000 0.000000 0.000000 -2.185244 -0.735381 2.582750 1.402708 2.935601 -7.946268 2.170315 -2.847301 -2.551685 -0.980460 -10.944965 -57.006938 6.551063 -15.886945 -6.516307 0.000000 0.000000 0.000000 -2.181750 -1.046973 1.925883 2.088299 -1.018571 18.582143 -3.056518 -1.655568 -0.454315 16.450526 26.563104 45.827458 16.334099 24.166538 -5.322223 0.000000 0.000000 0.000000 
-1.132636 87.605598 13.878611 0.000000 0.000000 0.000000 173.124245 -56.894824 174.302548 4.489886 17.220708 18.200052 20.408064 20.541748 2.763850 -11.358519 5.122350 -30.070693 -9.329485 3.191636 -0.977666 0.000000 0.000000 0.000000 172.713682 -56.420088 173.596170 -24.510675 -20.329285 -19.605004 24.844164 -9.352691 1.128836 1.565801 2.500710 6.702716 -4.856790 -9.452325 4.757585 0.000000 0.000000 0.000000 173.583520 -59.727252 173.743483 10.679049 -0.576479 0.296387 -0.563703 -1.491164 2.916746 0.864401 -1.326906 0.127626 0.000000 0.000000 0.000000 -1.865935 -1.407799 3.219346 -3.938648 17.297159 3.304969 -1.002672 23.008978 -6.322873 0.000000 0.000000 0.000000 -2.153191 -1.120416 3.092766 1.415642 3.227332 -8.824268 1.877910 -2.988190 -2.120972 0.218309 -11.303578 -57.501901 5.722330 -15.750730 -6.426115 0.000000 0.000000 0.000000 -2.076565 -1.432773 2.400220 2.079930 -1.351189 17.898845 -3.179324 -1.687185 -0.470437 15.814485 27.897259 45.736904 16.048547 23.835496 -5.555322 0.000000 0.000000 0.000000 
-1.122863 86.979454 11.841117 0.000000 0.000000 0.000000 173.828642 -53.265876 175.073840 6.706085 17.889512 19.025125 22.412784 21.475259 2.296415 -10.797208 5.213107 -31.082456 -9.003383 3.840787 -2.020937 0.000000 0.000000 0.000000 173.640962 -52.646087 174.582709 -25.773154 -21.567871 -17.665789 26.163390 -8.711784 0.680436 1.380454 3.534033 5.513033 -5.403287 -9.415386 4.506120 0.000000 0.000000 0.000000 174.641653 -55.668289 174.762602 11.119980 -1.380602 0.186504 -0.582146 -1.887134 3.260987 0.919598 -0.898934 0.012799 0.000000 0.000000 0.000000 -1.938580 -1.824818 3.522475 -3.949235 14.739640 2.543859 -0.900693 18.248512 -5.061238 0.000000 0.000000 0.000000 -2.164092 -1.524057 3.472598 1.431919 3.347240 -9.505147 1.750195 -3.149781 -1.535011 1.788206 -11.654739 -58.125258 4.903175 -16.025430 -6.507595 0.000000 0.000000 0.000000 -2.059792 -1.835360 2.771682 2.108349 -1.626012 17.385249 -3.501339 -1.563058 -0.523968 15.303899 29.099608 45.660617 15.629105 23.475688 -5.480527 0.000000 0.000000 0.000000 
-1.085932 86.477989 9.562193 0.000000 0.000000 0.000000 174.531797 -49.798974 175.732817 7.130033 17.365954 20.422655 26.323995 20.977336 1.884223 -8.508658 3.870285 -32.059501 -9.092926 4.722992 -4.045475 0.000000 0.000000 0.000000 174.615507 -49.031848 175.469964 -26.002067 -22.697963 -15.070824 26.989873 -8.051242 0.008437 0.504230 4.005515 3.674395 -5.537876 -9.324363 4.226072 0.000000 0.000000 0.000000 175.572977 -51.692173 175.486657 11.739489 -2.110033 0.130869 -0.721035 -2.221157 3.360080 0.952594 -0.343784 0.019166 0.000000 0.000000 0.000000 -2.045085 -2.173049 3.568879 -3.824369 11.945156 2.189549 -0.680226 13.390279 -3.950059 0.000000 0.000000 0.000000 -2.246953 -1.864770 3.600379 1.433424 3.322620 -9.869792 1.640945 -3.174393 -0.954053 3.469961 -11.776622 -58.819868 4.115766 -16.623866 -6.775963 0.000000 0.000000 0.000000 -2.142165 -2.174722 2.914869 2.140369 -1.821242 17.067932 -3.792547 -1.353375 -0.598895 14.840751 29.984951 45.677648 15.165819 23.172494 -5.208430 0.000000 0.000000 0.000000 
